<mxfile host="65bd71144e">
    <diagram name="02" id="YMj1xpAl_SfOTKT0soET">
        <mxGraphModel dx="1178" dy="971" grid="1" gridSize="10" guides="1" tooltips="1" connect="1" arrows="1" fold="1" page="1" pageScale="1" pageWidth="1169" pageHeight="827" math="0" shadow="0">
            <root>
                <mxCell id="ML3krrQk0YiTmpszw3Px-0"/>
                <mxCell id="ML3krrQk0YiTmpszw3Px-1" parent="ML3krrQk0YiTmpszw3Px-0"/>
                <mxCell id="ML3krrQk0YiTmpszw3Px-4" value="地図&lt;div&gt;～真善美・知情意～&lt;/div&gt;" style="text;html=1;align=center;verticalAlign=middle;whiteSpace=wrap;rounded=0;fillColor=#dae8fc;strokeColor=#6c8ebf;" parent="ML3krrQk0YiTmpszw3Px-1" vertex="1">
                    <mxGeometry x="81.25999999999999" y="120" width="200" height="40" as="geometry"/>
                </mxCell>
                <mxCell id="35" value="真" style="ellipse;whiteSpace=wrap;html=1;opacity=50;fillColor=#dae8fc;strokeColor=#6c8ebf;" parent="ML3krrQk0YiTmpszw3Px-1" vertex="1">
                    <mxGeometry x="121.26" y="290" width="120" height="80" as="geometry"/>
                </mxCell>
                <mxCell id="36" value="善" style="ellipse;whiteSpace=wrap;html=1;opacity=50;fillColor=#d5e8d4;strokeColor=#82b366;" parent="ML3krrQk0YiTmpszw3Px-1" vertex="1">
                    <mxGeometry x="167.51999999999998" y="240" width="120" height="80" as="geometry"/>
                </mxCell>
                <mxCell id="37" value="美" style="ellipse;whiteSpace=wrap;html=1;opacity=50;fillColor=#ffe6cc;strokeColor=#d79b00;" parent="ML3krrQk0YiTmpszw3Px-1" vertex="1">
                    <mxGeometry x="220" y="290" width="120" height="80" as="geometry"/>
                </mxCell>
                <mxCell id="38" value="真善美&lt;div&gt;(価値)&lt;/div&gt;" style="text;html=1;align=center;verticalAlign=middle;whiteSpace=wrap;rounded=0;fillColor=#d5e8d4;strokeColor=#82b366;" parent="ML3krrQk0YiTmpszw3Px-1" vertex="1">
                    <mxGeometry x="81.26" y="200" width="78.74" height="30" as="geometry"/>
                </mxCell>
                <mxCell id="40" value="知情意&lt;div&gt;(行為)&lt;/div&gt;" style="text;html=1;align=center;verticalAlign=middle;whiteSpace=wrap;rounded=0;fillColor=#d5e8d4;strokeColor=#82b366;" vertex="1" parent="ML3krrQk0YiTmpszw3Px-1">
                    <mxGeometry x="400" y="200" width="80" height="30" as="geometry"/>
                </mxCell>
                <mxCell id="41" value="知" style="ellipse;whiteSpace=wrap;html=1;opacity=50;fillColor=#dae8fc;strokeColor=#6c8ebf;" vertex="1" parent="ML3krrQk0YiTmpszw3Px-1">
                    <mxGeometry x="430" y="290" width="120" height="80" as="geometry"/>
                </mxCell>
                <mxCell id="42" value="意" style="ellipse;whiteSpace=wrap;html=1;opacity=50;fillColor=#d5e8d4;strokeColor=#82b366;" vertex="1" parent="ML3krrQk0YiTmpszw3Px-1">
                    <mxGeometry x="476.26" y="240" width="120" height="80" as="geometry"/>
                </mxCell>
                <mxCell id="43" value="情" style="ellipse;whiteSpace=wrap;html=1;opacity=50;fillColor=#ffe6cc;strokeColor=#d79b00;" vertex="1" parent="ML3krrQk0YiTmpszw3Px-1">
                    <mxGeometry x="528.74" y="290" width="120" height="80" as="geometry"/>
                </mxCell>
                <mxCell id="44" value="知は真を求める" style="rounded=1;whiteSpace=wrap;html=1;fillColor=#dae8fc;strokeColor=#6c8ebf;" vertex="1" parent="ML3krrQk0YiTmpszw3Px-1">
                    <mxGeometry x="241.26" y="414" width="280" height="30" as="geometry"/>
                </mxCell>
                <mxCell id="45" value="情は美に共鳴する" style="rounded=1;whiteSpace=wrap;html=1;fillColor=#ffe6cc;strokeColor=#d79b00;" vertex="1" parent="ML3krrQk0YiTmpszw3Px-1">
                    <mxGeometry x="241.26" y="460" width="280" height="30" as="geometry"/>
                </mxCell>
                <mxCell id="46" value="意は善を実践する&amp;nbsp;" style="rounded=1;whiteSpace=wrap;html=1;fillColor=#d5e8d4;strokeColor=#82b366;" vertex="1" parent="ML3krrQk0YiTmpszw3Px-1">
                    <mxGeometry x="241.26" y="510" width="280" height="30" as="geometry"/>
                </mxCell>
            </root>
        </mxGraphModel>
    </diagram>
</mxfile>